# xmcd CD database file
#
# Track frame offsets:
#	150
#	19099
#	33876
#	43269
#	56814
#	69647
#	82064
#	90823
#	103156
#	113527
#	130042
#	141340
#	155857
#	169632
#	184756
#	195379
#	211642
#	220869
#	235032
#	252279
#
# Disc length: 3505 seconds
#
# Revision: 0
# Processed by: cddbd v1.5.2PL0 Copyright (c) Steve Scherf et al.
# Submitted via: CDex 1.70beta2
#
DISCID=100daf14
DTITLE=Diverse - simply new orleans CD1
DYEAR=1900
DGENRE=Jazz
TTITLE0=Aaron Neville - Hercules
TTITLE1=Allen Toussaint - Sweet Touch Of Love
TTITLE2=The Dixie Cups - Iko Iko
TTITLE3=The Meters - Cissy Strut
TTITLE4=Lee Dorsey - Sneakin' Sally Through The Alley
TTITLE5=Robert Parker - Get Ta Steppin'
TTITLE6=David Batiste and The Gladiators - Funky Soul Pt. 1
TTITLE7=Irma Thomas - Ruler Of My Heart
TTITLE8=Dr. John - Trader John
TTITLE9=Aaron Neville - Struttin' On Sunday
TTITLE10=Eddie Bo and Inez Cheatham - Lover And A Friend
TTITLE11=The Meters - Look-Ka Py Py
TTITLE12=Lee Dorsey - Everything I Do Gonh Be Funky
TTITLE13=Allen Toussaint - The Chokin' Kind
TTITLE14=Betty Harris - I'm Evil Tonight
TTITLE15=Art Neville - Heartaches
TTITLE16=Irma Thomas - It's Raining
TTITLE17=The Meters - Ease Back
TTITLE18=Aaron Neville - Make Me Strong
TTITLE19=Fats Domino - Walkin' To New Orleans (live)
EXTD=
EXTT0=
EXTT1=
EXTT2=
EXTT3=
EXTT4=
EXTT5=
EXTT6=
EXTT7=
EXTT8=
EXTT9=
EXTT10=
EXTT11=
EXTT12=
EXTT13=
EXTT14=
EXTT15=
EXTT16=
EXTT17=
EXTT18=
EXTT19=
PLAYORDER=
